<mxfile host="Electron" modified="2023-07-13T12:40:30.896Z" agent="Mozilla/5.0 (X11; Linux x86_64) AppleWebKit/537.36 (KHTML, like Gecko) draw.io/21.5.1 Chrome/112.0.5615.204 Electron/24.6.0 Safari/537.36" etag="uT37QPIELvReOB4uD07_" version="21.5.1" type="device">
  <diagram name="Page-1" id="AyaffFxagdanyMF8PeOx">
    <mxGraphModel dx="1135" dy="803" grid="1" gridSize="10" guides="1" tooltips="1" connect="1" arrows="1" fold="1" page="1" pageScale="1" pageWidth="850" pageHeight="1100" background="#ffffff" math="0" shadow="0">
      <root>
        <mxCell id="0" />
        <mxCell id="1" parent="0" />
        <mxCell id="Ypv9IJrqPmgP_WFYDXx4-239" value="" style="group" parent="1" vertex="1" connectable="0">
          <mxGeometry x="160" y="670" width="10" height="50" as="geometry" />
        </mxCell>
        <mxCell id="Ypv9IJrqPmgP_WFYDXx4-240" value="" style="ellipse;whiteSpace=wrap;html=1;aspect=fixed;rounded=1;strokeColor=#000000;strokeWidth=2;fontFamily=Helvetica;fontSize=12;fontColor=default;fillColor=#FFFFFF;rotation=90;" parent="Ypv9IJrqPmgP_WFYDXx4-239" vertex="1">
          <mxGeometry y="40" width="10" height="10" as="geometry" />
        </mxCell>
        <mxCell id="Ypv9IJrqPmgP_WFYDXx4-241" value="" style="ellipse;whiteSpace=wrap;html=1;aspect=fixed;rounded=1;strokeColor=#000000;strokeWidth=2;fontFamily=Helvetica;fontSize=12;fontColor=default;fillColor=#FFFFFF;rotation=90;" parent="Ypv9IJrqPmgP_WFYDXx4-239" vertex="1">
          <mxGeometry y="20" width="10" height="10" as="geometry" />
        </mxCell>
        <mxCell id="Ypv9IJrqPmgP_WFYDXx4-242" value="" style="ellipse;whiteSpace=wrap;html=1;aspect=fixed;rounded=1;strokeColor=#000000;strokeWidth=2;fontFamily=Helvetica;fontSize=12;fontColor=default;fillColor=#FFFFFF;rotation=90;" parent="Ypv9IJrqPmgP_WFYDXx4-239" vertex="1">
          <mxGeometry width="10" height="10" as="geometry" />
        </mxCell>
        <mxCell id="Ypv9IJrqPmgP_WFYDXx4-295" style="edgeStyle=none;shape=connector;rounded=0;orthogonalLoop=1;jettySize=auto;html=1;exitX=1;exitY=0.25;exitDx=0;exitDy=0;entryX=0;entryY=0.5;entryDx=0;entryDy=0;labelBackgroundColor=default;strokeColor=#000000;strokeWidth=3;fontFamily=Helvetica;fontSize=12;fontColor=default;endArrow=classic;" parent="1" source="Ypv9IJrqPmgP_WFYDXx4-122" target="Ypv9IJrqPmgP_WFYDXx4-291" edge="1">
          <mxGeometry relative="1" as="geometry" />
        </mxCell>
        <mxCell id="Ypv9IJrqPmgP_WFYDXx4-297" style="edgeStyle=none;shape=connector;rounded=0;orthogonalLoop=1;jettySize=auto;html=1;exitX=1;exitY=0.75;exitDx=0;exitDy=0;entryX=0;entryY=0.471;entryDx=0;entryDy=0;entryPerimeter=0;labelBackgroundColor=default;strokeColor=#000000;strokeWidth=3;fontFamily=Helvetica;fontSize=12;fontColor=default;endArrow=classic;" parent="1" source="Ypv9IJrqPmgP_WFYDXx4-244" target="Ypv9IJrqPmgP_WFYDXx4-291" edge="1">
          <mxGeometry relative="1" as="geometry" />
        </mxCell>
        <mxCell id="Ypv9IJrqPmgP_WFYDXx4-300" style="edgeStyle=none;shape=connector;rounded=0;orthogonalLoop=1;jettySize=auto;html=1;exitX=1;exitY=0.25;exitDx=0;exitDy=0;entryX=0;entryY=0.5;entryDx=0;entryDy=0;labelBackgroundColor=default;strokeColor=#000000;strokeWidth=3;fontFamily=Helvetica;fontSize=12;fontColor=default;endArrow=classic;" parent="1" source="Ypv9IJrqPmgP_WFYDXx4-244" target="Ypv9IJrqPmgP_WFYDXx4-292" edge="1">
          <mxGeometry relative="1" as="geometry" />
        </mxCell>
        <mxCell id="Ypv9IJrqPmgP_WFYDXx4-301" style="edgeStyle=none;shape=connector;rounded=0;orthogonalLoop=1;jettySize=auto;html=1;exitX=1;exitY=0.64;exitDx=0;exitDy=0;exitPerimeter=0;entryX=0;entryY=0.5;entryDx=0;entryDy=0;labelBackgroundColor=default;strokeColor=#000000;strokeWidth=3;fontFamily=Helvetica;fontSize=12;fontColor=default;endArrow=classic;" parent="1" source="Ypv9IJrqPmgP_WFYDXx4-122" target="Ypv9IJrqPmgP_WFYDXx4-292" edge="1">
          <mxGeometry relative="1" as="geometry" />
        </mxCell>
        <mxCell id="Ypv9IJrqPmgP_WFYDXx4-298" style="edgeStyle=none;shape=connector;rounded=0;orthogonalLoop=1;jettySize=auto;html=1;exitX=1;exitY=0.75;exitDx=0;exitDy=0;labelBackgroundColor=default;strokeColor=#000000;strokeWidth=3;fontFamily=Helvetica;fontSize=12;fontColor=default;endArrow=classic;entryX=0;entryY=0.5;entryDx=0;entryDy=0;" parent="1" source="Ypv9IJrqPmgP_WFYDXx4-122" target="Ypv9IJrqPmgP_WFYDXx4-291" edge="1">
          <mxGeometry relative="1" as="geometry">
            <mxPoint x="470" y="540" as="targetPoint" />
          </mxGeometry>
        </mxCell>
        <mxCell id="Ypv9IJrqPmgP_WFYDXx4-299" style="edgeStyle=none;shape=connector;rounded=0;orthogonalLoop=1;jettySize=auto;html=1;exitX=1;exitY=0.5;exitDx=0;exitDy=0;labelBackgroundColor=default;strokeColor=#000000;strokeWidth=3;fontFamily=Helvetica;fontSize=12;fontColor=default;endArrow=classic;entryX=0;entryY=0.5;entryDx=0;entryDy=0;" parent="1" source="Ypv9IJrqPmgP_WFYDXx4-244" target="Ypv9IJrqPmgP_WFYDXx4-291" edge="1">
          <mxGeometry relative="1" as="geometry">
            <mxPoint x="470" y="540" as="targetPoint" />
          </mxGeometry>
        </mxCell>
        <mxCell id="Ypv9IJrqPmgP_WFYDXx4-296" style="edgeStyle=none;shape=connector;rounded=0;orthogonalLoop=1;jettySize=auto;html=1;exitX=1;exitY=0.5;exitDx=0;exitDy=0;labelBackgroundColor=default;strokeColor=#000000;strokeWidth=3;fontFamily=Helvetica;fontSize=12;fontColor=default;endArrow=classic;entryX=0;entryY=0.5;entryDx=0;entryDy=0;" parent="1" source="Ypv9IJrqPmgP_WFYDXx4-122" target="Ypv9IJrqPmgP_WFYDXx4-291" edge="1">
          <mxGeometry relative="1" as="geometry">
            <mxPoint x="470" y="540" as="targetPoint" />
          </mxGeometry>
        </mxCell>
        <mxCell id="FTWRimUvOv1Pp1NN3Kd8-1" value="" style="group" parent="1" vertex="1" connectable="0">
          <mxGeometry x="480" y="380" width="210" height="210" as="geometry" />
        </mxCell>
        <mxCell id="Ypv9IJrqPmgP_WFYDXx4-291" value="" style="shape=datastore;whiteSpace=wrap;html=1;rounded=1;strokeColor=#000000;strokeWidth=2;fontFamily=Helvetica;fontSize=12;fontColor=default;fillColor=#FFFFFF;aspect=fixed;" parent="FTWRimUvOv1Pp1NN3Kd8-1" vertex="1">
          <mxGeometry width="210" height="210" as="geometry" />
        </mxCell>
        <mxCell id="Ypv9IJrqPmgP_WFYDXx4-293" value="&lt;h1&gt;&lt;font color=&quot;#000000&quot;&gt;Training Data&lt;/font&gt;&lt;/h1&gt;" style="text;html=1;strokeColor=none;fillColor=none;align=center;verticalAlign=middle;whiteSpace=wrap;rounded=0;fontSize=12;fontFamily=Helvetica;fontColor=default;" parent="FTWRimUvOv1Pp1NN3Kd8-1" vertex="1">
          <mxGeometry x="35" y="110" width="160" height="30" as="geometry" />
        </mxCell>
        <mxCell id="FTWRimUvOv1Pp1NN3Kd8-2" value="" style="group" parent="1" vertex="1" connectable="0">
          <mxGeometry x="505" y="640" width="160" height="160" as="geometry" />
        </mxCell>
        <mxCell id="Ypv9IJrqPmgP_WFYDXx4-292" value="" style="shape=datastore;whiteSpace=wrap;html=1;rounded=1;strokeColor=#000000;strokeWidth=2;fontFamily=Helvetica;fontSize=12;fontColor=default;fillColor=#FFFFFF;aspect=fixed;" parent="FTWRimUvOv1Pp1NN3Kd8-2" vertex="1">
          <mxGeometry width="160" height="160" as="geometry" />
        </mxCell>
        <mxCell id="Ypv9IJrqPmgP_WFYDXx4-294" value="&lt;h1&gt;&lt;font color=&quot;#000000&quot;&gt;Evaluation Data&lt;/font&gt;&lt;/h1&gt;" style="text;html=1;strokeColor=none;fillColor=none;align=center;verticalAlign=middle;whiteSpace=wrap;rounded=0;fontSize=12;fontFamily=Helvetica;fontColor=default;" parent="FTWRimUvOv1Pp1NN3Kd8-2" vertex="1">
          <mxGeometry x="15" y="90" width="130" height="30" as="geometry" />
        </mxCell>
        <mxCell id="FTWRimUvOv1Pp1NN3Kd8-3" value="" style="group" parent="1" vertex="1" connectable="0">
          <mxGeometry x="505" y="850" width="160" height="160" as="geometry" />
        </mxCell>
        <mxCell id="FTWRimUvOv1Pp1NN3Kd8-4" value="" style="shape=datastore;whiteSpace=wrap;html=1;rounded=1;strokeColor=#000000;strokeWidth=2;fontFamily=Helvetica;fontSize=12;fontColor=default;fillColor=#FFFFFF;aspect=fixed;" parent="FTWRimUvOv1Pp1NN3Kd8-3" vertex="1">
          <mxGeometry width="160" height="160" as="geometry" />
        </mxCell>
        <mxCell id="FTWRimUvOv1Pp1NN3Kd8-5" value="&lt;h1&gt;&lt;font color=&quot;#000000&quot;&gt;Test Data&lt;/font&gt;&lt;/h1&gt;" style="text;html=1;strokeColor=none;fillColor=none;align=center;verticalAlign=middle;whiteSpace=wrap;rounded=0;fontSize=12;fontFamily=Helvetica;fontColor=default;" parent="FTWRimUvOv1Pp1NN3Kd8-3" vertex="1">
          <mxGeometry x="15" y="90" width="130" height="30" as="geometry" />
        </mxCell>
        <mxCell id="FTWRimUvOv1Pp1NN3Kd8-6" style="rounded=0;orthogonalLoop=1;jettySize=auto;html=1;exitX=1;exitY=0.35;exitDx=0;exitDy=0;exitPerimeter=0;entryX=0;entryY=0.5;entryDx=0;entryDy=0;strokeWidth=3;strokeColor=#000000;" parent="1" source="Ypv9IJrqPmgP_WFYDXx4-244" target="FTWRimUvOv1Pp1NN3Kd8-4" edge="1">
          <mxGeometry relative="1" as="geometry" />
        </mxCell>
        <mxCell id="FTWRimUvOv1Pp1NN3Kd8-7" style="rounded=0;orthogonalLoop=1;jettySize=auto;html=1;exitX=1;exitY=0.35;exitDx=2;exitDy=0;exitPerimeter=0;entryX=0;entryY=0.5;entryDx=0;entryDy=0;strokeWidth=3;strokeColor=#000000;" parent="1" source="Ypv9IJrqPmgP_WFYDXx4-122" target="FTWRimUvOv1Pp1NN3Kd8-4" edge="1">
          <mxGeometry relative="1" as="geometry" />
        </mxCell>
        <mxCell id="FTWRimUvOv1Pp1NN3Kd8-9" value="" style="group" parent="1" vertex="1" connectable="0">
          <mxGeometry x="40" y="340" width="250" height="310" as="geometry" />
        </mxCell>
        <mxCell id="Ypv9IJrqPmgP_WFYDXx4-148" value="" style="group;rounded=1;fillColor=#CCFF99;" parent="FTWRimUvOv1Pp1NN3Kd8-9" vertex="1" connectable="0">
          <mxGeometry y="30" width="250" height="280" as="geometry" />
        </mxCell>
        <mxCell id="Ypv9IJrqPmgP_WFYDXx4-122" value="" style="rounded=1;whiteSpace=wrap;html=1;strokeColor=#000000;strokeWidth=2;fontFamily=Helvetica;fontSize=12;fontColor=default;fillColor=#CCFF99;points=[[0,0,0,0,0],[0,0.25,0,0,0],[0,0.5,0,0,0],[0,0.75,0,0,0],[0,1,0,0,0],[0.25,0,0,0,0],[0.25,1,0,0,0],[0.5,0,0,0,0],[0.5,1,0,0,0],[0.75,0,0,0,0],[0.75,1,0,0,0],[1,0,0,0,0],[1,0.25,0,0,0],[1,0.35,0,2,0],[1,0.5,0,0,0],[1,0.64,0,0,0],[1,0.75,0,0,0],[1,1,0,0,0]];" parent="Ypv9IJrqPmgP_WFYDXx4-148" vertex="1">
          <mxGeometry width="250" height="280" as="geometry" />
        </mxCell>
        <mxCell id="Ypv9IJrqPmgP_WFYDXx4-123" value="" style="rounded=1;whiteSpace=wrap;html=1;strokeColor=#000000;strokeWidth=2;fontFamily=Helvetica;fontSize=12;fontColor=default;fillColor=#FFFFFF;" parent="Ypv9IJrqPmgP_WFYDXx4-148" vertex="1">
          <mxGeometry x="12.5" y="30" width="225" height="70" as="geometry" />
        </mxCell>
        <mxCell id="Ypv9IJrqPmgP_WFYDXx4-124" value="" style="group" parent="Ypv9IJrqPmgP_WFYDXx4-148" vertex="1" connectable="0">
          <mxGeometry x="20" y="35" width="80" height="60" as="geometry" />
        </mxCell>
        <mxCell id="Ypv9IJrqPmgP_WFYDXx4-153" value="" style="group" parent="Ypv9IJrqPmgP_WFYDXx4-124" vertex="1" connectable="0">
          <mxGeometry width="80" height="60" as="geometry" />
        </mxCell>
        <mxCell id="Ypv9IJrqPmgP_WFYDXx4-125" value="" style="rounded=1;whiteSpace=wrap;html=1;strokeColor=#000000;strokeWidth=2;fontFamily=Helvetica;fontSize=12;fontColor=default;fillColor=#FFFFFF;" parent="Ypv9IJrqPmgP_WFYDXx4-153" vertex="1">
          <mxGeometry width="80" height="60" as="geometry" />
        </mxCell>
        <mxCell id="Ypv9IJrqPmgP_WFYDXx4-126" value="&lt;h2&gt;&lt;font color=&quot;#000000&quot;&gt;Tuple &lt;i&gt;p&lt;/i&gt;&lt;/font&gt;&lt;/h2&gt;" style="text;html=1;strokeColor=none;fillColor=none;align=center;verticalAlign=middle;whiteSpace=wrap;rounded=0;fontSize=12;fontFamily=Helvetica;fontColor=default;" parent="Ypv9IJrqPmgP_WFYDXx4-153" vertex="1">
          <mxGeometry x="5.7142857142857135" y="5" width="68.57142857142857" height="30" as="geometry" />
        </mxCell>
        <mxCell id="Ypv9IJrqPmgP_WFYDXx4-182" value="" style="group" parent="Ypv9IJrqPmgP_WFYDXx4-153" vertex="1" connectable="0">
          <mxGeometry y="30" width="80" height="30" as="geometry" />
        </mxCell>
        <mxCell id="Ypv9IJrqPmgP_WFYDXx4-178" value="&lt;h1&gt;&lt;font color=&quot;#000000&quot;&gt;(&amp;nbsp; &amp;nbsp;,&amp;nbsp; &amp;nbsp;)&lt;/font&gt;&lt;/h1&gt;" style="text;html=1;strokeColor=none;fillColor=none;align=center;verticalAlign=middle;whiteSpace=wrap;rounded=0;fontSize=12;fontFamily=Helvetica;fontColor=default;" parent="Ypv9IJrqPmgP_WFYDXx4-182" vertex="1">
          <mxGeometry width="80" height="30" as="geometry" />
        </mxCell>
        <mxCell id="Ypv9IJrqPmgP_WFYDXx4-179" value="" style="html=1;verticalLabelPosition=bottom;align=center;labelBackgroundColor=#ffffff;verticalAlign=top;strokeWidth=2;strokeColor=#000000;shadow=0;dashed=0;shape=mxgraph.ios7.icons.video_conversation;rounded=1;pointerEvents=0;fontFamily=Helvetica;fontSize=12;fontColor=default;fillColor=#FFFFFF;gradientColor=none;aspect=fixed;" parent="Ypv9IJrqPmgP_WFYDXx4-182" vertex="1">
          <mxGeometry x="19" y="11.009999999999991" width="16" height="8" as="geometry" />
        </mxCell>
        <mxCell id="Ypv9IJrqPmgP_WFYDXx4-181" value="" style="html=1;verticalLabelPosition=bottom;align=center;labelBackgroundColor=#ffffff;verticalAlign=top;strokeWidth=2;strokeColor=#000000;shadow=0;dashed=0;shape=mxgraph.ios7.icons.location;rounded=0;fontFamily=Helvetica;fontSize=12;fontColor=default;fillColor=none;gradientColor=none;aspect=fixed;" parent="Ypv9IJrqPmgP_WFYDXx4-182" vertex="1">
          <mxGeometry x="48" y="6.8799999999999955" width="13" height="16.25" as="geometry" />
        </mxCell>
        <mxCell id="Ypv9IJrqPmgP_WFYDXx4-131" value="&lt;h2&gt;&lt;font color=&quot;#000000&quot;&gt;Entry 1&lt;/font&gt;&lt;/h2&gt;" style="text;html=1;strokeColor=none;fillColor=none;align=center;verticalAlign=middle;whiteSpace=wrap;rounded=0;fontSize=12;fontFamily=Helvetica;fontColor=default;" parent="Ypv9IJrqPmgP_WFYDXx4-148" vertex="1">
          <mxGeometry x="71.25" width="110" height="30" as="geometry" />
        </mxCell>
        <mxCell id="Ypv9IJrqPmgP_WFYDXx4-132" value="" style="group" parent="Ypv9IJrqPmgP_WFYDXx4-148" vertex="1" connectable="0">
          <mxGeometry x="12.5" y="165" width="227.5" height="95" as="geometry" />
        </mxCell>
        <mxCell id="Ypv9IJrqPmgP_WFYDXx4-133" value="" style="rounded=1;whiteSpace=wrap;html=1;strokeColor=#000000;strokeWidth=2;fontFamily=Helvetica;fontSize=12;fontColor=default;fillColor=#FFFFFF;" parent="Ypv9IJrqPmgP_WFYDXx4-132" vertex="1">
          <mxGeometry y="25" width="227.5" height="70" as="geometry" />
        </mxCell>
        <mxCell id="Ypv9IJrqPmgP_WFYDXx4-147" value="&lt;h2&gt;&lt;font color=&quot;#000000&quot;&gt;Entry &lt;i&gt;M&lt;sub&gt;1&lt;/sub&gt;&lt;/i&gt;&lt;/font&gt;&lt;/h2&gt;" style="text;html=1;strokeColor=none;fillColor=none;align=center;verticalAlign=middle;whiteSpace=wrap;rounded=0;fontSize=12;fontFamily=Helvetica;fontColor=default;" parent="Ypv9IJrqPmgP_WFYDXx4-132" vertex="1">
          <mxGeometry x="57.5" width="110" height="30" as="geometry" />
        </mxCell>
        <mxCell id="Ypv9IJrqPmgP_WFYDXx4-158" value="" style="group" parent="Ypv9IJrqPmgP_WFYDXx4-132" vertex="1" connectable="0">
          <mxGeometry x="7.5" y="30" width="80" height="60" as="geometry" />
        </mxCell>
        <mxCell id="Ypv9IJrqPmgP_WFYDXx4-159" value="" style="group" parent="Ypv9IJrqPmgP_WFYDXx4-158" vertex="1" connectable="0">
          <mxGeometry width="80" height="60" as="geometry" />
        </mxCell>
        <mxCell id="Ypv9IJrqPmgP_WFYDXx4-160" value="" style="rounded=1;whiteSpace=wrap;html=1;strokeColor=#000000;strokeWidth=2;fontFamily=Helvetica;fontSize=12;fontColor=default;fillColor=#FFFFFF;" parent="Ypv9IJrqPmgP_WFYDXx4-159" vertex="1">
          <mxGeometry width="80" height="60" as="geometry" />
        </mxCell>
        <mxCell id="Ypv9IJrqPmgP_WFYDXx4-161" value="&lt;h2&gt;&lt;font color=&quot;#000000&quot;&gt;Tuple &lt;i&gt;q&lt;/i&gt;&lt;/font&gt;&lt;/h2&gt;" style="text;html=1;strokeColor=none;fillColor=none;align=center;verticalAlign=middle;whiteSpace=wrap;rounded=0;fontSize=12;fontFamily=Helvetica;fontColor=default;" parent="Ypv9IJrqPmgP_WFYDXx4-159" vertex="1">
          <mxGeometry x="5.7142857142857135" y="5" width="68.57142857142857" height="30" as="geometry" />
        </mxCell>
        <mxCell id="Ypv9IJrqPmgP_WFYDXx4-191" value="" style="group" parent="Ypv9IJrqPmgP_WFYDXx4-159" vertex="1" connectable="0">
          <mxGeometry y="30" width="80" height="30" as="geometry" />
        </mxCell>
        <mxCell id="Ypv9IJrqPmgP_WFYDXx4-192" value="&lt;h1&gt;&lt;font color=&quot;#000000&quot;&gt;(&amp;nbsp; &amp;nbsp;,&amp;nbsp; &amp;nbsp;)&lt;/font&gt;&lt;/h1&gt;" style="text;html=1;strokeColor=none;fillColor=none;align=center;verticalAlign=middle;whiteSpace=wrap;rounded=0;fontSize=12;fontFamily=Helvetica;fontColor=default;" parent="Ypv9IJrqPmgP_WFYDXx4-191" vertex="1">
          <mxGeometry width="80" height="30" as="geometry" />
        </mxCell>
        <mxCell id="Ypv9IJrqPmgP_WFYDXx4-193" value="" style="html=1;verticalLabelPosition=bottom;align=center;labelBackgroundColor=#ffffff;verticalAlign=top;strokeWidth=2;strokeColor=#000000;shadow=0;dashed=0;shape=mxgraph.ios7.icons.video_conversation;rounded=1;pointerEvents=0;fontFamily=Helvetica;fontSize=12;fontColor=default;fillColor=#FFFFFF;gradientColor=none;aspect=fixed;" parent="Ypv9IJrqPmgP_WFYDXx4-191" vertex="1">
          <mxGeometry x="19" y="11.009999999999991" width="16" height="8" as="geometry" />
        </mxCell>
        <mxCell id="Ypv9IJrqPmgP_WFYDXx4-194" value="" style="html=1;verticalLabelPosition=bottom;align=center;labelBackgroundColor=#ffffff;verticalAlign=top;strokeWidth=2;strokeColor=#000000;shadow=0;dashed=0;shape=mxgraph.ios7.icons.location;rounded=0;fontFamily=Helvetica;fontSize=12;fontColor=default;fillColor=none;gradientColor=none;aspect=fixed;" parent="Ypv9IJrqPmgP_WFYDXx4-191" vertex="1">
          <mxGeometry x="48" y="6.8799999999999955" width="13" height="16.25" as="geometry" />
        </mxCell>
        <mxCell id="Ypv9IJrqPmgP_WFYDXx4-163" value="" style="group" parent="Ypv9IJrqPmgP_WFYDXx4-132" vertex="1" connectable="0">
          <mxGeometry x="137.5" y="30" width="80" height="60" as="geometry" />
        </mxCell>
        <mxCell id="Ypv9IJrqPmgP_WFYDXx4-164" value="" style="group" parent="Ypv9IJrqPmgP_WFYDXx4-163" vertex="1" connectable="0">
          <mxGeometry width="80" height="60" as="geometry" />
        </mxCell>
        <mxCell id="Ypv9IJrqPmgP_WFYDXx4-165" value="" style="rounded=1;whiteSpace=wrap;html=1;strokeColor=#000000;strokeWidth=2;fontFamily=Helvetica;fontSize=12;fontColor=default;fillColor=#FFFFFF;" parent="Ypv9IJrqPmgP_WFYDXx4-164" vertex="1">
          <mxGeometry width="80" height="60" as="geometry" />
        </mxCell>
        <mxCell id="Ypv9IJrqPmgP_WFYDXx4-166" value="&lt;h2&gt;&lt;font color=&quot;#000000&quot;&gt;Tuple &lt;i&gt;r&lt;/i&gt;&lt;/font&gt;&lt;/h2&gt;" style="text;html=1;strokeColor=none;fillColor=none;align=center;verticalAlign=middle;whiteSpace=wrap;rounded=0;fontSize=12;fontFamily=Helvetica;fontColor=default;" parent="Ypv9IJrqPmgP_WFYDXx4-164" vertex="1">
          <mxGeometry x="5.7142857142857135" y="5" width="68.57142857142857" height="30" as="geometry" />
        </mxCell>
        <mxCell id="Ypv9IJrqPmgP_WFYDXx4-187" value="" style="group" parent="Ypv9IJrqPmgP_WFYDXx4-164" vertex="1" connectable="0">
          <mxGeometry y="30" width="80" height="30" as="geometry" />
        </mxCell>
        <mxCell id="Ypv9IJrqPmgP_WFYDXx4-188" value="&lt;h1&gt;&lt;font color=&quot;#000000&quot;&gt;(&amp;nbsp; &amp;nbsp;,&amp;nbsp; &amp;nbsp;)&lt;/font&gt;&lt;/h1&gt;" style="text;html=1;strokeColor=none;fillColor=none;align=center;verticalAlign=middle;whiteSpace=wrap;rounded=0;fontSize=12;fontFamily=Helvetica;fontColor=default;" parent="Ypv9IJrqPmgP_WFYDXx4-187" vertex="1">
          <mxGeometry width="80" height="30" as="geometry" />
        </mxCell>
        <mxCell id="Ypv9IJrqPmgP_WFYDXx4-189" value="" style="html=1;verticalLabelPosition=bottom;align=center;labelBackgroundColor=#ffffff;verticalAlign=top;strokeWidth=2;strokeColor=#000000;shadow=0;dashed=0;shape=mxgraph.ios7.icons.video_conversation;rounded=1;pointerEvents=0;fontFamily=Helvetica;fontSize=12;fontColor=default;fillColor=#FFFFFF;gradientColor=none;aspect=fixed;" parent="Ypv9IJrqPmgP_WFYDXx4-187" vertex="1">
          <mxGeometry x="19" y="11.009999999999991" width="16" height="8" as="geometry" />
        </mxCell>
        <mxCell id="Ypv9IJrqPmgP_WFYDXx4-190" value="" style="html=1;verticalLabelPosition=bottom;align=center;labelBackgroundColor=#ffffff;verticalAlign=top;strokeWidth=2;strokeColor=#000000;shadow=0;dashed=0;shape=mxgraph.ios7.icons.location;rounded=0;fontFamily=Helvetica;fontSize=12;fontColor=default;fillColor=none;gradientColor=none;aspect=fixed;" parent="Ypv9IJrqPmgP_WFYDXx4-187" vertex="1">
          <mxGeometry x="48" y="6.8799999999999955" width="13" height="16.25" as="geometry" />
        </mxCell>
        <mxCell id="Ypv9IJrqPmgP_WFYDXx4-154" value="" style="group" parent="Ypv9IJrqPmgP_WFYDXx4-148" vertex="1" connectable="0">
          <mxGeometry x="150" y="35" width="80" height="60" as="geometry" />
        </mxCell>
        <mxCell id="Ypv9IJrqPmgP_WFYDXx4-155" value="" style="rounded=1;whiteSpace=wrap;html=1;strokeColor=#000000;strokeWidth=2;fontFamily=Helvetica;fontSize=12;fontColor=default;fillColor=#FFFFFF;" parent="Ypv9IJrqPmgP_WFYDXx4-154" vertex="1">
          <mxGeometry width="80" height="60" as="geometry" />
        </mxCell>
        <mxCell id="Ypv9IJrqPmgP_WFYDXx4-156" value="&lt;h2&gt;&lt;font color=&quot;#000000&quot;&gt;Tuple &lt;i&gt;q&lt;/i&gt;&lt;/font&gt;&lt;/h2&gt;" style="text;html=1;strokeColor=none;fillColor=none;align=center;verticalAlign=middle;whiteSpace=wrap;rounded=0;fontSize=12;fontFamily=Helvetica;fontColor=default;" parent="Ypv9IJrqPmgP_WFYDXx4-154" vertex="1">
          <mxGeometry x="5.7142857142857135" y="5" width="68.57142857142857" height="30" as="geometry" />
        </mxCell>
        <mxCell id="Ypv9IJrqPmgP_WFYDXx4-183" value="" style="group" parent="Ypv9IJrqPmgP_WFYDXx4-154" vertex="1" connectable="0">
          <mxGeometry y="30" width="80" height="30" as="geometry" />
        </mxCell>
        <mxCell id="Ypv9IJrqPmgP_WFYDXx4-184" value="&lt;h1&gt;&lt;font color=&quot;#000000&quot;&gt;(&amp;nbsp; &amp;nbsp;,&amp;nbsp; &amp;nbsp;)&lt;/font&gt;&lt;/h1&gt;" style="text;html=1;strokeColor=none;fillColor=none;align=center;verticalAlign=middle;whiteSpace=wrap;rounded=0;fontSize=12;fontFamily=Helvetica;fontColor=default;" parent="Ypv9IJrqPmgP_WFYDXx4-183" vertex="1">
          <mxGeometry width="80" height="30" as="geometry" />
        </mxCell>
        <mxCell id="Ypv9IJrqPmgP_WFYDXx4-185" value="" style="html=1;verticalLabelPosition=bottom;align=center;labelBackgroundColor=#ffffff;verticalAlign=top;strokeWidth=2;strokeColor=#000000;shadow=0;dashed=0;shape=mxgraph.ios7.icons.video_conversation;rounded=1;pointerEvents=0;fontFamily=Helvetica;fontSize=12;fontColor=default;fillColor=#FFFFFF;gradientColor=none;aspect=fixed;" parent="Ypv9IJrqPmgP_WFYDXx4-183" vertex="1">
          <mxGeometry x="19" y="11.009999999999991" width="16" height="8" as="geometry" />
        </mxCell>
        <mxCell id="Ypv9IJrqPmgP_WFYDXx4-186" value="" style="html=1;verticalLabelPosition=bottom;align=center;labelBackgroundColor=#ffffff;verticalAlign=top;strokeWidth=2;strokeColor=#000000;shadow=0;dashed=0;shape=mxgraph.ios7.icons.location;rounded=0;fontFamily=Helvetica;fontSize=12;fontColor=default;fillColor=none;gradientColor=none;aspect=fixed;" parent="Ypv9IJrqPmgP_WFYDXx4-183" vertex="1">
          <mxGeometry x="48" y="6.8799999999999955" width="13" height="16.25" as="geometry" />
        </mxCell>
        <mxCell id="Ypv9IJrqPmgP_WFYDXx4-238" value="" style="group" parent="Ypv9IJrqPmgP_WFYDXx4-148" vertex="1" connectable="0">
          <mxGeometry x="121.25" y="115" width="10" height="50" as="geometry" />
        </mxCell>
        <mxCell id="Ypv9IJrqPmgP_WFYDXx4-128" value="" style="ellipse;whiteSpace=wrap;html=1;aspect=fixed;rounded=1;strokeColor=#000000;strokeWidth=2;fontFamily=Helvetica;fontSize=12;fontColor=default;fillColor=#FFFFFF;rotation=90;" parent="Ypv9IJrqPmgP_WFYDXx4-238" vertex="1">
          <mxGeometry y="40" width="10" height="10" as="geometry" />
        </mxCell>
        <mxCell id="Ypv9IJrqPmgP_WFYDXx4-129" value="" style="ellipse;whiteSpace=wrap;html=1;aspect=fixed;rounded=1;strokeColor=#000000;strokeWidth=2;fontFamily=Helvetica;fontSize=12;fontColor=default;fillColor=#FFFFFF;rotation=90;" parent="Ypv9IJrqPmgP_WFYDXx4-238" vertex="1">
          <mxGeometry y="20" width="10" height="10" as="geometry" />
        </mxCell>
        <mxCell id="Ypv9IJrqPmgP_WFYDXx4-130" value="" style="ellipse;whiteSpace=wrap;html=1;aspect=fixed;rounded=1;strokeColor=#000000;strokeWidth=2;fontFamily=Helvetica;fontSize=12;fontColor=default;fillColor=#FFFFFF;rotation=90;" parent="Ypv9IJrqPmgP_WFYDXx4-238" vertex="1">
          <mxGeometry width="10" height="10" as="geometry" />
        </mxCell>
        <mxCell id="FTWRimUvOv1Pp1NN3Kd8-8" value="&lt;h1&gt;&lt;font style=&quot;font-size: 21px;&quot; color=&quot;#000000&quot;&gt;ROS.bag &lt;i&gt;1&lt;/i&gt;&lt;/font&gt;&lt;/h1&gt;" style="text;html=1;strokeColor=none;fillColor=none;align=left;verticalAlign=middle;whiteSpace=wrap;rounded=0;" parent="FTWRimUvOv1Pp1NN3Kd8-9" vertex="1">
          <mxGeometry width="140" height="30" as="geometry" />
        </mxCell>
        <mxCell id="FTWRimUvOv1Pp1NN3Kd8-14" value="" style="group" parent="1" vertex="1" connectable="0">
          <mxGeometry x="40" y="710" width="250" height="310" as="geometry" />
        </mxCell>
        <mxCell id="Ypv9IJrqPmgP_WFYDXx4-243" value="" style="group;rounded=1;fillColor=#CCFF99;" parent="FTWRimUvOv1Pp1NN3Kd8-14" vertex="1" connectable="0">
          <mxGeometry y="30" width="250" height="280" as="geometry" />
        </mxCell>
        <mxCell id="Ypv9IJrqPmgP_WFYDXx4-244" value="" style="rounded=1;whiteSpace=wrap;html=1;strokeColor=#000000;strokeWidth=2;fontFamily=Helvetica;fontSize=12;fontColor=default;fillColor=#CCFF99;points=[[0,0,0,0,0],[0,0.25,0,0,0],[0,0.5,0,0,0],[0,0.75,0,0,0],[0,1,0,0,0],[0.25,0,0,0,0],[0.25,1,0,0,0],[0.5,0,0,0,0],[0.5,1,0,0,0],[0.75,0,0,0,0],[0.75,1,0,0,0],[1,0,0,0,0],[1,0.25,0,0,0],[1,0.35,0,0,0],[1,0.5,0,0,0],[1,0.62,0,0,0],[1,0.75,0,0,0],[1,1,0,0,0]];" parent="Ypv9IJrqPmgP_WFYDXx4-243" vertex="1">
          <mxGeometry width="250" height="280" as="geometry" />
        </mxCell>
        <mxCell id="Ypv9IJrqPmgP_WFYDXx4-245" value="" style="rounded=1;whiteSpace=wrap;html=1;strokeColor=#000000;strokeWidth=2;fontFamily=Helvetica;fontSize=12;fontColor=default;fillColor=#FFFFFF;" parent="Ypv9IJrqPmgP_WFYDXx4-243" vertex="1">
          <mxGeometry x="12.5" y="30" width="225" height="70" as="geometry" />
        </mxCell>
        <mxCell id="Ypv9IJrqPmgP_WFYDXx4-246" value="" style="group" parent="Ypv9IJrqPmgP_WFYDXx4-243" vertex="1" connectable="0">
          <mxGeometry x="20" y="35" width="80" height="60" as="geometry" />
        </mxCell>
        <mxCell id="Ypv9IJrqPmgP_WFYDXx4-247" value="" style="group" parent="Ypv9IJrqPmgP_WFYDXx4-246" vertex="1" connectable="0">
          <mxGeometry width="80" height="60" as="geometry" />
        </mxCell>
        <mxCell id="Ypv9IJrqPmgP_WFYDXx4-248" value="" style="rounded=1;whiteSpace=wrap;html=1;strokeColor=#000000;strokeWidth=2;fontFamily=Helvetica;fontSize=12;fontColor=default;fillColor=#FFFFFF;" parent="Ypv9IJrqPmgP_WFYDXx4-247" vertex="1">
          <mxGeometry width="80" height="60" as="geometry" />
        </mxCell>
        <mxCell id="Ypv9IJrqPmgP_WFYDXx4-249" value="&lt;h2&gt;&lt;font color=&quot;#000000&quot;&gt;Tuple &lt;i&gt;s&lt;/i&gt;&lt;/font&gt;&lt;/h2&gt;" style="text;html=1;strokeColor=none;fillColor=none;align=center;verticalAlign=middle;whiteSpace=wrap;rounded=0;fontSize=12;fontFamily=Helvetica;fontColor=default;" parent="Ypv9IJrqPmgP_WFYDXx4-247" vertex="1">
          <mxGeometry x="5.7142857142857135" y="5" width="68.57142857142857" height="30" as="geometry" />
        </mxCell>
        <mxCell id="Ypv9IJrqPmgP_WFYDXx4-250" value="" style="group" parent="Ypv9IJrqPmgP_WFYDXx4-247" vertex="1" connectable="0">
          <mxGeometry y="30" width="80" height="30" as="geometry" />
        </mxCell>
        <mxCell id="Ypv9IJrqPmgP_WFYDXx4-251" value="&lt;h1&gt;&lt;font color=&quot;#000000&quot;&gt;(&amp;nbsp; &amp;nbsp;,&amp;nbsp; &amp;nbsp;)&lt;/font&gt;&lt;/h1&gt;" style="text;html=1;strokeColor=none;fillColor=none;align=center;verticalAlign=middle;whiteSpace=wrap;rounded=0;fontSize=12;fontFamily=Helvetica;fontColor=default;" parent="Ypv9IJrqPmgP_WFYDXx4-250" vertex="1">
          <mxGeometry width="80" height="30" as="geometry" />
        </mxCell>
        <mxCell id="Ypv9IJrqPmgP_WFYDXx4-252" value="" style="html=1;verticalLabelPosition=bottom;align=center;labelBackgroundColor=#ffffff;verticalAlign=top;strokeWidth=2;strokeColor=#000000;shadow=0;dashed=0;shape=mxgraph.ios7.icons.video_conversation;rounded=1;pointerEvents=0;fontFamily=Helvetica;fontSize=12;fontColor=default;fillColor=#FFFFFF;gradientColor=none;aspect=fixed;" parent="Ypv9IJrqPmgP_WFYDXx4-250" vertex="1">
          <mxGeometry x="19" y="11.009999999999991" width="16" height="8" as="geometry" />
        </mxCell>
        <mxCell id="Ypv9IJrqPmgP_WFYDXx4-253" value="" style="html=1;verticalLabelPosition=bottom;align=center;labelBackgroundColor=#ffffff;verticalAlign=top;strokeWidth=2;strokeColor=#000000;shadow=0;dashed=0;shape=mxgraph.ios7.icons.location;rounded=0;fontFamily=Helvetica;fontSize=12;fontColor=default;fillColor=none;gradientColor=none;aspect=fixed;" parent="Ypv9IJrqPmgP_WFYDXx4-250" vertex="1">
          <mxGeometry x="48" y="6.8799999999999955" width="13" height="16.25" as="geometry" />
        </mxCell>
        <mxCell id="Ypv9IJrqPmgP_WFYDXx4-254" value="&lt;h2&gt;&lt;font color=&quot;#000000&quot;&gt;Entry 1&lt;/font&gt;&lt;/h2&gt;" style="text;html=1;strokeColor=none;fillColor=none;align=center;verticalAlign=middle;whiteSpace=wrap;rounded=0;fontSize=12;fontFamily=Helvetica;fontColor=default;" parent="Ypv9IJrqPmgP_WFYDXx4-243" vertex="1">
          <mxGeometry x="71.25" width="110" height="30" as="geometry" />
        </mxCell>
        <mxCell id="Ypv9IJrqPmgP_WFYDXx4-255" value="" style="group" parent="Ypv9IJrqPmgP_WFYDXx4-243" vertex="1" connectable="0">
          <mxGeometry x="12.5" y="165" width="227.5" height="95" as="geometry" />
        </mxCell>
        <mxCell id="Ypv9IJrqPmgP_WFYDXx4-256" value="" style="rounded=1;whiteSpace=wrap;html=1;strokeColor=#000000;strokeWidth=2;fontFamily=Helvetica;fontSize=12;fontColor=default;fillColor=#FFFFFF;" parent="Ypv9IJrqPmgP_WFYDXx4-255" vertex="1">
          <mxGeometry y="25" width="227.5" height="70" as="geometry" />
        </mxCell>
        <mxCell id="Ypv9IJrqPmgP_WFYDXx4-257" value="&lt;h2&gt;&lt;font color=&quot;#000000&quot;&gt;Entry &lt;i&gt;M&lt;span style=&quot;font-size: 12.5px;&quot;&gt;w&lt;/span&gt;&lt;/i&gt;&lt;/font&gt;&lt;/h2&gt;" style="text;html=1;strokeColor=none;fillColor=none;align=center;verticalAlign=middle;whiteSpace=wrap;rounded=0;fontSize=12;fontFamily=Helvetica;fontColor=default;" parent="Ypv9IJrqPmgP_WFYDXx4-255" vertex="1">
          <mxGeometry x="57.5" width="110" height="30" as="geometry" />
        </mxCell>
        <mxCell id="Ypv9IJrqPmgP_WFYDXx4-258" value="" style="group" parent="Ypv9IJrqPmgP_WFYDXx4-255" vertex="1" connectable="0">
          <mxGeometry x="7.5" y="30" width="80" height="60" as="geometry" />
        </mxCell>
        <mxCell id="Ypv9IJrqPmgP_WFYDXx4-259" value="" style="group" parent="Ypv9IJrqPmgP_WFYDXx4-258" vertex="1" connectable="0">
          <mxGeometry width="80" height="60" as="geometry" />
        </mxCell>
        <mxCell id="Ypv9IJrqPmgP_WFYDXx4-260" value="" style="rounded=1;whiteSpace=wrap;html=1;strokeColor=#000000;strokeWidth=2;fontFamily=Helvetica;fontSize=12;fontColor=default;fillColor=#FFFFFF;" parent="Ypv9IJrqPmgP_WFYDXx4-259" vertex="1">
          <mxGeometry width="80" height="60" as="geometry" />
        </mxCell>
        <mxCell id="Ypv9IJrqPmgP_WFYDXx4-261" value="&lt;h2&gt;&lt;font color=&quot;#000000&quot;&gt;Tuple &lt;i&gt;v&lt;/i&gt;&lt;/font&gt;&lt;/h2&gt;" style="text;html=1;strokeColor=none;fillColor=none;align=center;verticalAlign=middle;whiteSpace=wrap;rounded=0;fontSize=12;fontFamily=Helvetica;fontColor=default;" parent="Ypv9IJrqPmgP_WFYDXx4-259" vertex="1">
          <mxGeometry x="5.7142857142857135" y="5" width="68.57142857142857" height="30" as="geometry" />
        </mxCell>
        <mxCell id="Ypv9IJrqPmgP_WFYDXx4-262" value="" style="group" parent="Ypv9IJrqPmgP_WFYDXx4-259" vertex="1" connectable="0">
          <mxGeometry y="30" width="80" height="30" as="geometry" />
        </mxCell>
        <mxCell id="Ypv9IJrqPmgP_WFYDXx4-263" value="&lt;h1&gt;&lt;font color=&quot;#000000&quot;&gt;(&amp;nbsp; &amp;nbsp;,&amp;nbsp; &amp;nbsp;)&lt;/font&gt;&lt;/h1&gt;" style="text;html=1;strokeColor=none;fillColor=none;align=center;verticalAlign=middle;whiteSpace=wrap;rounded=0;fontSize=12;fontFamily=Helvetica;fontColor=default;" parent="Ypv9IJrqPmgP_WFYDXx4-262" vertex="1">
          <mxGeometry width="80" height="30" as="geometry" />
        </mxCell>
        <mxCell id="Ypv9IJrqPmgP_WFYDXx4-264" value="" style="html=1;verticalLabelPosition=bottom;align=center;labelBackgroundColor=#ffffff;verticalAlign=top;strokeWidth=2;strokeColor=#000000;shadow=0;dashed=0;shape=mxgraph.ios7.icons.video_conversation;rounded=1;pointerEvents=0;fontFamily=Helvetica;fontSize=12;fontColor=default;fillColor=#FFFFFF;gradientColor=none;aspect=fixed;" parent="Ypv9IJrqPmgP_WFYDXx4-262" vertex="1">
          <mxGeometry x="19" y="11.009999999999991" width="16" height="8" as="geometry" />
        </mxCell>
        <mxCell id="Ypv9IJrqPmgP_WFYDXx4-265" value="" style="html=1;verticalLabelPosition=bottom;align=center;labelBackgroundColor=#ffffff;verticalAlign=top;strokeWidth=2;strokeColor=#000000;shadow=0;dashed=0;shape=mxgraph.ios7.icons.location;rounded=0;fontFamily=Helvetica;fontSize=12;fontColor=default;fillColor=none;gradientColor=none;aspect=fixed;" parent="Ypv9IJrqPmgP_WFYDXx4-262" vertex="1">
          <mxGeometry x="48" y="6.8799999999999955" width="13" height="16.25" as="geometry" />
        </mxCell>
        <mxCell id="Ypv9IJrqPmgP_WFYDXx4-266" value="" style="group" parent="Ypv9IJrqPmgP_WFYDXx4-255" vertex="1" connectable="0">
          <mxGeometry x="137.5" y="30" width="80" height="60" as="geometry" />
        </mxCell>
        <mxCell id="Ypv9IJrqPmgP_WFYDXx4-267" value="" style="group" parent="Ypv9IJrqPmgP_WFYDXx4-266" vertex="1" connectable="0">
          <mxGeometry width="80" height="60" as="geometry" />
        </mxCell>
        <mxCell id="Ypv9IJrqPmgP_WFYDXx4-268" value="" style="rounded=1;whiteSpace=wrap;html=1;strokeColor=#000000;strokeWidth=2;fontFamily=Helvetica;fontSize=12;fontColor=default;fillColor=#FFFFFF;" parent="Ypv9IJrqPmgP_WFYDXx4-267" vertex="1">
          <mxGeometry width="80" height="60" as="geometry" />
        </mxCell>
        <mxCell id="Ypv9IJrqPmgP_WFYDXx4-269" value="&lt;h2&gt;&lt;font color=&quot;#000000&quot;&gt;Tuple &lt;i&gt;t&lt;/i&gt;&lt;/font&gt;&lt;/h2&gt;" style="text;html=1;strokeColor=none;fillColor=none;align=center;verticalAlign=middle;whiteSpace=wrap;rounded=0;fontSize=12;fontFamily=Helvetica;fontColor=default;" parent="Ypv9IJrqPmgP_WFYDXx4-267" vertex="1">
          <mxGeometry x="5.7142857142857135" y="5" width="68.57142857142857" height="30" as="geometry" />
        </mxCell>
        <mxCell id="Ypv9IJrqPmgP_WFYDXx4-270" value="" style="group" parent="Ypv9IJrqPmgP_WFYDXx4-267" vertex="1" connectable="0">
          <mxGeometry y="30" width="80" height="30" as="geometry" />
        </mxCell>
        <mxCell id="Ypv9IJrqPmgP_WFYDXx4-271" value="&lt;h1&gt;&lt;font color=&quot;#000000&quot;&gt;(&amp;nbsp; &amp;nbsp;,&amp;nbsp; &amp;nbsp;)&lt;/font&gt;&lt;/h1&gt;" style="text;html=1;strokeColor=none;fillColor=none;align=center;verticalAlign=middle;whiteSpace=wrap;rounded=0;fontSize=12;fontFamily=Helvetica;fontColor=default;" parent="Ypv9IJrqPmgP_WFYDXx4-270" vertex="1">
          <mxGeometry width="80" height="30" as="geometry" />
        </mxCell>
        <mxCell id="Ypv9IJrqPmgP_WFYDXx4-272" value="" style="html=1;verticalLabelPosition=bottom;align=center;labelBackgroundColor=#ffffff;verticalAlign=top;strokeWidth=2;strokeColor=#000000;shadow=0;dashed=0;shape=mxgraph.ios7.icons.video_conversation;rounded=1;pointerEvents=0;fontFamily=Helvetica;fontSize=12;fontColor=default;fillColor=#FFFFFF;gradientColor=none;aspect=fixed;" parent="Ypv9IJrqPmgP_WFYDXx4-270" vertex="1">
          <mxGeometry x="19" y="11.009999999999991" width="16" height="8" as="geometry" />
        </mxCell>
        <mxCell id="Ypv9IJrqPmgP_WFYDXx4-273" value="" style="html=1;verticalLabelPosition=bottom;align=center;labelBackgroundColor=#ffffff;verticalAlign=top;strokeWidth=2;strokeColor=#000000;shadow=0;dashed=0;shape=mxgraph.ios7.icons.location;rounded=0;fontFamily=Helvetica;fontSize=12;fontColor=default;fillColor=none;gradientColor=none;aspect=fixed;" parent="Ypv9IJrqPmgP_WFYDXx4-270" vertex="1">
          <mxGeometry x="48" y="6.8799999999999955" width="13" height="16.25" as="geometry" />
        </mxCell>
        <mxCell id="Ypv9IJrqPmgP_WFYDXx4-274" value="" style="group" parent="Ypv9IJrqPmgP_WFYDXx4-243" vertex="1" connectable="0">
          <mxGeometry x="150" y="35" width="80" height="60" as="geometry" />
        </mxCell>
        <mxCell id="Ypv9IJrqPmgP_WFYDXx4-275" value="" style="rounded=1;whiteSpace=wrap;html=1;strokeColor=#000000;strokeWidth=2;fontFamily=Helvetica;fontSize=12;fontColor=default;fillColor=#FFFFFF;" parent="Ypv9IJrqPmgP_WFYDXx4-274" vertex="1">
          <mxGeometry width="80" height="60" as="geometry" />
        </mxCell>
        <mxCell id="Ypv9IJrqPmgP_WFYDXx4-276" value="&lt;h2&gt;&lt;font color=&quot;#000000&quot;&gt;Tuple &lt;i&gt;u&lt;/i&gt;&lt;/font&gt;&lt;/h2&gt;" style="text;html=1;strokeColor=none;fillColor=none;align=center;verticalAlign=middle;whiteSpace=wrap;rounded=0;fontSize=12;fontFamily=Helvetica;fontColor=default;" parent="Ypv9IJrqPmgP_WFYDXx4-274" vertex="1">
          <mxGeometry x="5.7142857142857135" y="5" width="68.57142857142857" height="30" as="geometry" />
        </mxCell>
        <mxCell id="Ypv9IJrqPmgP_WFYDXx4-277" value="" style="group" parent="Ypv9IJrqPmgP_WFYDXx4-274" vertex="1" connectable="0">
          <mxGeometry y="30" width="80" height="30" as="geometry" />
        </mxCell>
        <mxCell id="Ypv9IJrqPmgP_WFYDXx4-278" value="&lt;h1&gt;&lt;font color=&quot;#000000&quot;&gt;(&amp;nbsp; &amp;nbsp;,&amp;nbsp; &amp;nbsp;)&lt;/font&gt;&lt;/h1&gt;" style="text;html=1;strokeColor=none;fillColor=none;align=center;verticalAlign=middle;whiteSpace=wrap;rounded=0;fontSize=12;fontFamily=Helvetica;fontColor=default;" parent="Ypv9IJrqPmgP_WFYDXx4-277" vertex="1">
          <mxGeometry width="80" height="30" as="geometry" />
        </mxCell>
        <mxCell id="Ypv9IJrqPmgP_WFYDXx4-279" value="" style="html=1;verticalLabelPosition=bottom;align=center;labelBackgroundColor=#ffffff;verticalAlign=top;strokeWidth=2;strokeColor=#000000;shadow=0;dashed=0;shape=mxgraph.ios7.icons.video_conversation;rounded=1;pointerEvents=0;fontFamily=Helvetica;fontSize=12;fontColor=default;fillColor=#FFFFFF;gradientColor=none;aspect=fixed;" parent="Ypv9IJrqPmgP_WFYDXx4-277" vertex="1">
          <mxGeometry x="19" y="11.009999999999991" width="16" height="8" as="geometry" />
        </mxCell>
        <mxCell id="Ypv9IJrqPmgP_WFYDXx4-280" value="" style="html=1;verticalLabelPosition=bottom;align=center;labelBackgroundColor=#ffffff;verticalAlign=top;strokeWidth=2;strokeColor=#000000;shadow=0;dashed=0;shape=mxgraph.ios7.icons.location;rounded=0;fontFamily=Helvetica;fontSize=12;fontColor=default;fillColor=none;gradientColor=none;aspect=fixed;" parent="Ypv9IJrqPmgP_WFYDXx4-277" vertex="1">
          <mxGeometry x="48" y="6.8799999999999955" width="13" height="16.25" as="geometry" />
        </mxCell>
        <mxCell id="Ypv9IJrqPmgP_WFYDXx4-281" value="" style="group" parent="Ypv9IJrqPmgP_WFYDXx4-243" vertex="1" connectable="0">
          <mxGeometry x="121.25" y="115" width="10" height="50" as="geometry" />
        </mxCell>
        <mxCell id="Ypv9IJrqPmgP_WFYDXx4-282" value="" style="ellipse;whiteSpace=wrap;html=1;aspect=fixed;rounded=1;strokeColor=#000000;strokeWidth=2;fontFamily=Helvetica;fontSize=12;fontColor=default;fillColor=#FFFFFF;rotation=90;" parent="Ypv9IJrqPmgP_WFYDXx4-281" vertex="1">
          <mxGeometry y="40" width="10" height="10" as="geometry" />
        </mxCell>
        <mxCell id="Ypv9IJrqPmgP_WFYDXx4-283" value="" style="ellipse;whiteSpace=wrap;html=1;aspect=fixed;rounded=1;strokeColor=#000000;strokeWidth=2;fontFamily=Helvetica;fontSize=12;fontColor=default;fillColor=#FFFFFF;rotation=90;" parent="Ypv9IJrqPmgP_WFYDXx4-281" vertex="1">
          <mxGeometry y="20" width="10" height="10" as="geometry" />
        </mxCell>
        <mxCell id="Ypv9IJrqPmgP_WFYDXx4-284" value="" style="ellipse;whiteSpace=wrap;html=1;aspect=fixed;rounded=1;strokeColor=#000000;strokeWidth=2;fontFamily=Helvetica;fontSize=12;fontColor=default;fillColor=#FFFFFF;rotation=90;" parent="Ypv9IJrqPmgP_WFYDXx4-281" vertex="1">
          <mxGeometry width="10" height="10" as="geometry" />
        </mxCell>
        <mxCell id="FTWRimUvOv1Pp1NN3Kd8-11" value="&lt;h1&gt;&lt;font style=&quot;font-size: 21px;&quot; color=&quot;#000000&quot;&gt;ROS.bag &lt;i&gt;w&lt;/i&gt;&lt;/font&gt;&lt;/h1&gt;" style="text;html=1;strokeColor=none;fillColor=none;align=left;verticalAlign=middle;whiteSpace=wrap;rounded=0;" parent="FTWRimUvOv1Pp1NN3Kd8-14" vertex="1">
          <mxGeometry width="140" height="30" as="geometry" />
        </mxCell>
      </root>
    </mxGraphModel>
  </diagram>
</mxfile>
